<svg width="15" height="16" viewBox="0 0 15 16" fill="none" xmlns="http://www.w3.org/2000/svg">
<path fill-rule="evenodd" clip-rule="evenodd" d="M7.04419 8.08291V16.0002C7.18205 16.0002 7.27263 15.9703 7.39638 15.8997L13.736 12.277C13.9863 12.1336 14.0884 11.9114 14.0884 11.6229V4.277C14.0884 4.13227 14.0579 4.04569 13.9876 3.9248L7.24697 7.73342C7.12159 7.80507 7.04419 7.93846 7.04419 8.08291V8.08291ZM10.5662 12.6292C10.5662 12.8304 10.4908 12.9311 10.3146 13.0317L8.20141 14.2393C8.05051 14.3399 7.84922 14.2896 7.84922 14.0883V8.70465C7.84922 8.56063 7.97595 8.37401 8.10076 8.30214L12.931 5.53487C13.0652 5.45765 13.1825 5.58132 13.1825 5.73613V8.60408C13.1825 8.75271 13.1125 8.88631 12.9813 8.95627L10.8178 10.1135C10.6866 10.1834 10.5662 10.317 10.5662 10.4657V12.6292Z" fill="#555555"/>
<path fill-rule="evenodd" clip-rule="evenodd" d="M0 11.6226V4.27672C0 3.98783 0.151692 3.71565 0.402514 3.57232L6.54086 0.100627C6.67312 0.0305412 6.89305 0 7.04402 0C7.19499 0 7.42782 0.0373816 7.54718 0.100629L13.6352 3.57232C13.7556 3.64349 13.9193 3.80743 13.9874 3.92452L7.24524 7.74842C7.11986 7.82008 7.04402 7.95617 7.04402 8.10061V16C6.90616 16 6.76526 15.97 6.64151 15.8994L0.45283 12.327C0.202001 12.1837 0 11.9115 0 11.6226V11.6226ZM0.905661 5.73584V8.60377C0.905661 8.805 0.955977 8.90564 1.15723 9.00629L3.27044 10.2138C3.47169 10.3145 3.52201 10.4654 3.52201 10.6163V12.6289C3.52201 12.8301 3.57233 12.9308 3.77358 13.0314L5.88679 14.239C6.08802 14.3396 6.23899 14.2893 6.23899 14.088V8.70442C6.23899 8.55345 6.18867 8.40248 5.98745 8.30191L1.25786 5.5849C1.10692 5.48427 0.905661 5.53458 0.905661 5.73584V5.73584ZM9.15724 2.31446L7.29557 3.37106C7.14467 3.47169 6.94337 3.47169 6.79248 3.37106L4.93081 2.31446C4.80827 2.2452 4.65104 2.24555 4.5283 2.31446L2.21384 3.62263C2.01258 3.72327 2.01258 3.92452 2.21384 4.02515L6.84273 6.69181C6.96662 6.76273 7.12142 6.76273 7.24524 6.69181L11.8742 4.02515C12.0252 3.92452 12.0755 3.72327 11.8742 3.62263L9.55975 2.31446C9.43699 2.24555 9.27979 2.2452 9.15724 2.31446V2.31446Z" fill="#555555"/>
</svg>
