<?xml version="1.0" encoding="utf-8"?>
<!-- Generator: Adobe Illustrator 15.0.0, SVG Export Plug-In . SVG Version: 6.00 Build 0)  -->
<!DOCTYPE svg PUBLIC "-//W3C//DTD SVG 1.1//EN" "http://www.w3.org/Graphics/SVG/1.1/DTD/svg11.dtd">
<svg version="1.1" id="Layer_1" xmlns="http://www.w3.org/2000/svg" xmlns:xlink="http://www.w3.org/1999/xlink" x="0px" y="0px"
	 width="637px" height="349px" viewBox="0 0 637 349" enable-background="new 0 0 637 349" xml:space="preserve">
<path fill="none" stroke="#000000" stroke-width="25" stroke-miterlimit="10" d="M129.5,6.039c0,0-83.5,151.5-95,190
	s-22,84.5-22,102.5s10,36.5,26.5,36.5s38.5-28.5,38.5-60s-40.25-78.312-70.75-84.812c0,0,64.25,18.812,98.25-10.188"/>
<path fill="none" stroke="#000000" stroke-width="25" stroke-miterlimit="10" d="M125,162.706
	c41.167-35.833,47.5-63.167,48.25-65.417s3.333-3.5,6.25-2.25s22.333,11.917,45.75,13c0,0-3.218,18.346-8.917,33
	c-9.333,24-11.833,45.667,4.667,57.167c13.425,9.356,43.846-1.983,57.048-9.825c13.202-7.842,22.452-12.342,37.952-28.092
	s33.667-39.083,27.5-50s-21.667-19.417-38.75-13.5s-33.25,35.25-30.75,59.75s21.75,41.25,36,45.5s39.75,0.25,61.5-16.25
	s50.75-60.75,54.25-75.25s5.5-18.417,6.875-18.417s3.625,0,3.625,0c1.125,0,3.625,17.167,14.625,28.917s23.386,34.102,17.792,55
	c-5.666,21.167-28.167,29.834-48.667,26.167s-34.5-30.667-34.5-30.667"/>
<path fill="none" stroke="#000000" stroke-width="25" stroke-miterlimit="10" d="M458.334,194.039c0,0,2.999,6.333,12.666,9
	s18.667,3,29.667-8c4.044-4.044,10.458-16.5,21.889-40.094c28.069-59.406,77.611-148.89,77.611-148.89"/>
<path fill="none" stroke="#000000" stroke-width="25" stroke-miterlimit="10" d="M555.667,92.141
	c18.671-1.915,36.233,10.17,41.858,27.26c6.652,20.21-3.002,32.493-3.912,52.796c-0.396,8.792-0.688,17.2,4.363,24.868
	c7.781,11.805,21.274,13.799,33.522,7.976"/>
</svg>
