<svg width="21" height="16" viewBox="0 0 21 16" fill="none" xmlns="http://www.w3.org/2000/svg">
<path d="M8.12596 8.10337V7.51416H15.4399V7.62852C14.5036 7.93349 13.1172 8.22107 12.7614 8.27658C12.9553 8.36687 13.0185 8.44646 13.1011 8.47354C13.3874 8.5081 13.6713 8.56036 13.9511 8.63004C14.5019 8.75678 14.958 8.87682 15.3332 9.00925C15.7231 9.15504 15.9294 9.22225 16.1592 9.28847C16.4275 9.36161 16.6994 9.4211 16.9737 9.4667C17.2001 9.50014 17.6813 9.33294 17.7944 9.30385C17.9074 9.27476 19.371 8.70595 19.371 8.70595C19.371 8.70595 20.0064 8.46819 20.2579 8.40499C20.4889 8.34112 20.4949 8.41837 20.4949 8.41837C20.5159 8.4853 20.5325 8.55356 20.5444 8.62268C20.5677 8.84033 20.5698 9.05973 20.5504 9.27777C20.5255 9.44578 20.492 9.61241 20.4501 9.77702C20.4123 9.91295 20.3613 10.0449 20.298 10.1709C20.2512 10.2529 20.1789 10.3806 20.1542 10.4361C20.1159 10.5125 20.0912 10.595 20.0813 10.6799C20.0698 10.7948 20.0753 10.9107 20.0977 11.024C20.1177 11.121 20.1826 11.3641 20.1826 11.3641L20.2592 11.668L9.77721 11.6553V12.2699H1.28856C1.29321 12.2558 1.29402 12.2407 1.2909 12.2261C1.28221 12.1887 1.23941 12.1335 1.07555 12.0349C0.864548 11.8974 0.198431 11.6563 0.00548449 11.5858C-0.00220662 11.4029 -0.0814585 10.5602 0.969883 9.63557C1.28464 9.3666 1.6159 9.11755 1.9617 8.88987C1.9617 8.88987 2.86457 8.29932 3.58219 8.06357" fill="#555555"/>
<path d="M20.2574 11.668L9.77541 11.6553V12.2699H1.28844C1.24129 12.4083 0.604265 12.6531 0.168213 12.738C0.40229 13.0601 0.844362 13.354 1.28811 13.6075C1.71577 13.8409 2.15966 14.0433 2.61633 14.2131C2.78353 14.2709 3.28178 14.4659 3.57872 14.4893C3.9919 14.5187 4.40689 14.5109 4.81866 14.4659C5.03629 14.4447 5.25254 14.4112 5.46639 14.3656C5.46639 14.3656 5.50785 14.5294 5.76734 14.8892C5.95494 15.1383 6.185 15.3932 6.41473 15.544C6.68827 15.7168 6.77922 15.8081 7.37177 15.9161C7.81244 16.0001 8.2628 16.0211 8.70936 15.9783C9.01032 15.9506 9.30191 15.9409 9.56107 15.869C9.57344 15.5366 9.53164 15.2296 9.39788 14.9584C9.75769 14.9728 9.95766 14.9832 10.4599 14.9735C11.4297 14.9551 12.4887 14.7555 13.3568 14.5896C14.0741 14.4528 15.2475 14.1241 15.8086 13.9375C16.1309 13.8302 16.8974 13.5697 16.9686 13.5697C17.084 13.5697 17.2572 13.5968 17.4983 13.668C17.8564 13.774 18.1316 13.8686 18.7356 14.0857C19.3395 14.3027 19.8769 14.492 20.2039 14.5368C20.4457 14.5702 20.4754 14.5368 20.4921 14.4157C20.5199 14.2626 20.3066 13.9141 20.2186 13.6406C20.1084 13.3642 20.0863 13.0605 20.1554 12.7712C20.1781 12.6861 20.2056 12.6023 20.2377 12.5204C20.2959 12.3535 20.3214 12.1769 20.3126 12.0004C20.3059 11.8879 20.2874 11.7765 20.2574 11.668Z" fill="#555555"/>
<path d="M20.1206 6.64604C20.1172 6.53089 20.1319 6.41591 20.1641 6.30529C20.1848 6.23842 20.2062 6.17889 20.2457 6.0662C20.3021 5.89464 20.3236 5.71351 20.3089 5.53351C20.2976 5.42679 20.2801 5.32083 20.2564 5.21617L12.5693 5.20312V5.80169H1.29344C1.31618 5.96588 0.607928 6.22838 0.171875 6.31466C0.399264 6.62698 0.859059 6.93496 1.30414 7.18944C1.7328 7.42224 2.17731 7.62461 2.63437 7.79503C2.83501 7.86592 3.27373 8.02911 3.58405 8.06489L8.12582 8.10334V7.51414H15.4397V7.6285C15.5501 7.59774 15.7139 7.54891 15.8193 7.51414C16.1416 7.4068 16.9208 7.13861 16.992 7.13761C17.1077 7.13761 17.2552 7.16302 17.4963 7.23425C17.8544 7.33992 18.1393 7.44592 18.7439 7.66161C19.3485 7.87729 19.8732 8.06288 20.1995 8.11103C20.4801 8.15283 20.4968 8.05887 20.4968 7.94684C20.5035 7.80406 20.2922 7.44324 20.2039 7.16837C20.1489 6.9997 20.1208 6.82344 20.1206 6.64604V6.64604Z" fill="#555555"/>
<path d="M20.5443 2.20401C20.5503 2.31302 20.567 2.75776 20.5503 2.85875C20.5285 3.01312 20.4972 3.166 20.4567 3.31654C20.4132 3.45364 20.347 3.65094 20.2962 3.74056C20.2494 3.82248 20.1731 3.94888 20.1484 4.00439C20.1117 4.08584 20.0884 4.17267 20.0795 4.26154C20.068 4.37642 20.0735 4.49237 20.0959 4.60564C20.1159 4.70261 20.1808 4.94572 20.1808 4.94572L20.2564 5.21625L12.5693 5.2032V5.80177H1.29346C1.29346 5.80177 1.30349 5.73489 1.09951 5.60782C0.91559 5.5075 0.31702 5.25336 0.01272 5.15973C-0.0167069 5.00691 -0.0815798 4.1415 0.969762 3.21723C1.28464 2.94801 1.61612 2.69884 1.96225 2.47119C1.96225 2.47119 2.83435 1.85222 3.77133 1.57501C3.99718 1.51128 4.22742 1.46433 4.46019 1.43456C5.12463 1.38039 6.18969 1.3543 6.29402 1.35798C6.50298 1.07983 6.73044 0.816061 6.97485 0.568473C7.37178 0.177564 7.59682 0.0267517 7.83425 0C8.16195 0.019395 9.9162 0.429365 10.4114 0.576833C10.6957 0.657088 11.2648 0.810911 11.7156 0.999844C12.1804 1.17841 12.2934 1.33023 12.2934 1.33023C12.3805 1.46177 12.4749 1.58827 12.5763 1.7091C12.686 1.81878 13.001 2.00805 13.0886 2.04349C13.2207 2.07693 13.4441 2.07894 13.9497 2.201C14.478 2.32673 14.9529 2.46116 15.3307 2.57886C15.722 2.70928 15.926 2.79956 16.16 2.85976C16.3941 2.91995 16.7686 3.01023 16.976 3.04033C17.1833 3.07043 17.6391 2.90657 17.7521 2.87748C17.8651 2.84839 19.3709 2.28727 19.3709 2.28727C19.3709 2.28727 20.1835 1.99668 20.2571 1.97294C20.5035 1.89268 20.5443 1.887 20.5443 2.20401V2.20401Z" fill="#555555"/>
<path d="M3.57802 3.12695C3.04633 3.12695 2.64506 3.53492 2.6183 4.11342C2.59155 4.68524 3.04967 5.09989 3.57802 5.09989C4.10637 5.09989 4.53774 4.65849 4.53774 4.11342C4.53774 3.56836 4.11004 3.12695 3.57802 3.12695V3.12695ZM3.35397 4.89256C2.94601 4.89256 2.61496 4.60164 2.6183 4.13349C2.63168 3.74893 2.94936 3.37441 3.35397 3.37441C3.75859 3.37441 4.08965 3.71215 4.08965 4.13349C4.08965 4.55482 3.76227 4.89256 3.35431 4.89256H3.35397Z" fill="white"/>
<path d="M3.35432 3.37744C2.94636 3.37744 2.62868 3.75196 2.61865 4.13652C2.61865 4.60468 2.9497 4.8956 3.35432 4.8956C3.75894 4.8956 4.09 4.55786 4.09 4.13652C4.09 3.71518 3.76229 3.37744 3.35432 3.37744ZM3.00655 4.64146C2.95735 4.64279 2.90886 4.62941 2.8673 4.60305C2.82574 4.57668 2.79298 4.53851 2.77322 4.49343C2.75346 4.44835 2.7476 4.39839 2.75638 4.34996C2.76516 4.30153 2.78818 4.25681 2.82251 4.22153C2.85683 4.18625 2.9009 4.16201 2.94908 4.15191C2.99725 4.14181 3.04734 4.1463 3.09295 4.16482C3.13856 4.18334 3.17761 4.21503 3.2051 4.25586C3.2326 4.29668 3.2473 4.34478 3.24732 4.39401C3.24789 4.42611 3.24211 4.45802 3.2303 4.48788C3.21849 4.51775 3.20089 4.54498 3.17851 4.56801C3.15613 4.59105 3.12942 4.60942 3.0999 4.62208C3.07039 4.63475 3.03866 4.64145 3.00655 4.64179V4.64146Z" fill="#555555"/>
<path d="M3.00663 4.64188C3.13961 4.64188 3.2474 4.53109 3.2474 4.39443C3.2474 4.25776 3.13961 4.14697 3.00663 4.14697C2.87366 4.14697 2.76587 4.25776 2.76587 4.39443C2.76587 4.53109 2.87366 4.64188 3.00663 4.64188Z" fill="white"/>
<path d="M3.57802 9.6001C3.04633 9.6001 2.64506 10.0081 2.6183 10.5866C2.59155 11.1584 3.04967 11.573 3.57802 11.573C4.10637 11.573 4.53774 11.1316 4.53774 10.5866C4.53774 10.0415 4.11004 9.6001 3.57802 9.6001V9.6001ZM3.35397 11.3657C2.94601 11.3657 2.61496 11.0748 2.6183 10.6066C2.63168 10.2221 2.94936 9.84755 3.35397 9.84755C3.75859 9.84755 4.08965 10.1853 4.08965 10.6066C4.08965 11.028 3.76227 11.3657 3.35431 11.3657H3.35397Z" fill="white"/>
<path d="M3.35432 9.85107C2.94636 9.85107 2.62868 10.2256 2.61865 10.6102C2.61865 11.0783 2.9497 11.3692 3.35432 11.3692C3.75894 11.3692 4.09 11.0315 4.09 10.6102C4.09 10.1888 3.76229 9.85107 3.35432 9.85107ZM3.00655 11.1151C2.95735 11.1164 2.90886 11.103 2.8673 11.0767C2.82574 11.0503 2.79298 11.0121 2.77322 10.9671C2.75346 10.922 2.7476 10.872 2.75638 10.8236C2.76516 10.7752 2.78818 10.7304 2.82251 10.6952C2.85683 10.6599 2.9009 10.6356 2.94908 10.6255C2.99725 10.6154 3.04734 10.6199 3.09295 10.6385C3.13856 10.657 3.17761 10.6887 3.2051 10.7295C3.2326 10.7703 3.2473 10.8184 3.24732 10.8676C3.24785 10.8997 3.24203 10.9316 3.2302 10.9614C3.21837 10.9912 3.20077 11.0184 3.17839 11.0414C3.15601 11.0644 3.12931 11.0828 3.09982 11.0954C3.07033 11.1081 3.03864 11.1147 3.00655 11.1151V11.1151Z" fill="#555555"/>
<path d="M3.00663 11.115C3.13961 11.115 3.2474 11.0042 3.2474 10.8676C3.2474 10.7309 3.13961 10.6201 3.00663 10.6201C2.87366 10.6201 2.76587 10.7309 2.76587 10.8676C2.76587 11.0042 2.87366 11.115 3.00663 11.115Z" fill="white"/>
<path d="M7.50587 5.80176C7.36844 6.31773 7.22565 6.74241 7.22298 6.75011C7.21312 6.77924 7.20909 6.81003 7.21114 6.84073C7.21318 6.87142 7.22124 6.90141 7.23488 6.92898C7.24851 6.95655 7.26744 6.98117 7.29058 7.00143C7.31373 7.02169 7.34064 7.03719 7.36978 7.04705C7.39891 7.05691 7.4297 7.06093 7.4604 7.05889C7.49109 7.05685 7.52108 7.04878 7.54865 7.03515C7.57622 7.02152 7.60084 7.00259 7.6211 6.97944C7.64136 6.9563 7.65686 6.92939 7.66672 6.90025C7.67809 6.86681 7.84261 6.37692 7.99041 5.80176H7.50587ZM6.42845 5.80176C6.38565 5.8984 6.35488 5.95759 6.35321 5.96093C6.33046 6.00772 6.32677 6.06151 6.34292 6.11097C6.35908 6.16042 6.39381 6.20167 6.43979 6.22601C6.48578 6.25034 6.53941 6.25587 6.58939 6.24141C6.63937 6.22696 6.68178 6.19365 6.70767 6.14853C6.76562 6.03563 6.81785 5.9199 6.86417 5.80176H6.42845Z" fill="white"/>
<path d="M7.75453 4.51946C7.75453 4.52648 7.75252 4.53317 7.75186 4.54019C7.7251 4.90569 7.6181 5.38387 7.50574 5.80187H7.99195C8.09628 5.39591 8.19259 4.94682 8.21968 4.584C8.2792 4.17971 8.03208 3.41997 7.86856 2.97622C9.26891 3.02961 10.6655 3.15653 12.0525 3.35643C14.4291 3.70019 17.2959 5.12472 17.3246 5.1391C17.3522 5.15349 17.3823 5.16225 17.4133 5.16487C17.4443 5.16749 17.4755 5.16391 17.505 5.15434C17.5346 5.14477 17.562 5.12941 17.5856 5.10914C17.6092 5.08887 17.6285 5.06412 17.6424 5.03631C17.6563 5.0085 17.6645 4.9782 17.6666 4.94718C17.6686 4.91616 17.6645 4.88504 17.6544 4.85563C17.6443 4.82623 17.6285 4.79913 17.6078 4.77591C17.5871 4.7527 17.562 4.73384 17.5339 4.72043C17.4142 4.66024 14.5719 3.24909 12.1197 2.89296C9.57833 2.52512 7.54553 2.49904 7.52547 2.49904C7.48678 2.4986 7.44858 2.50776 7.4143 2.5257C7.38001 2.54363 7.35071 2.56979 7.32901 2.60183C7.30731 2.63386 7.29389 2.67078 7.28995 2.70927C7.28601 2.74776 7.29168 2.78663 7.30644 2.8224C7.50641 3.31062 7.8067 4.20078 7.75453 4.51946ZM6.70687 4.56728C6.74599 5.01269 6.54368 5.54238 6.42832 5.80187H6.86303C6.99144 5.47951 7.14526 4.9836 7.10547 4.53116C7.04916 3.92472 6.84476 3.34139 6.51024 2.83243C6.49487 2.811 6.47543 2.79281 6.45303 2.77889C6.43063 2.76498 6.40571 2.75561 6.37969 2.75132C6.35367 2.74704 6.32706 2.74792 6.30138 2.75392C6.2757 2.75992 6.25145 2.77091 6.23002 2.78628C6.20859 2.80165 6.1904 2.82109 6.17648 2.8435C6.16256 2.8659 6.15319 2.89082 6.14891 2.91684C6.14462 2.94286 6.14551 2.96947 6.15151 2.99515C6.1575 3.02083 6.1685 3.04508 6.18387 3.06651C6.47524 3.51797 6.65455 4.03251 6.70687 4.56728Z" fill="white"/>
<path d="M7.51025 12.2686C7.37282 12.7845 7.23003 13.2092 7.22736 13.2169C7.20801 13.2756 7.21263 13.3395 7.24021 13.3947C7.26778 13.45 7.31608 13.4921 7.37458 13.5119C7.43308 13.5317 7.49703 13.5276 7.55251 13.5005C7.60799 13.4733 7.65049 13.4254 7.67076 13.367C7.68247 13.3336 7.84699 12.8437 7.99446 12.2686H7.51025ZM6.43283 12.2686C6.38969 12.3652 6.35893 12.4244 6.35726 12.4277C6.33238 12.4748 6.32721 12.5298 6.34289 12.5806C6.35857 12.6315 6.39381 12.674 6.44086 12.6989C6.4879 12.7238 6.54291 12.729 6.59377 12.7133C6.64463 12.6976 6.68717 12.6624 6.71205 12.6153C6.77 12.5024 6.82223 12.3867 6.86855 12.2686H6.43283Z" fill="white"/>
<path d="M7.75792 10.9861C7.75679 10.993 7.75601 10.9999 7.75558 11.0068C7.7285 11.3723 7.62182 11.8505 7.50947 12.2685H7.99367C8.098 11.8626 8.19431 11.4135 8.22173 11.0506C8.28125 10.6464 8.03413 9.88661 7.87028 9.44286C9.27074 9.49625 10.6674 9.62316 12.0546 9.82307C14.4308 10.1668 17.2979 11.5914 17.3263 11.6057C17.3538 11.6195 17.3838 11.6277 17.4144 11.6299C17.4451 11.6321 17.4759 11.6283 17.5051 11.6186C17.5342 11.6089 17.5612 11.5935 17.5844 11.5734C17.6077 11.5532 17.6267 11.5287 17.6405 11.5012C17.6543 11.4737 17.6625 11.4438 17.6647 11.4132C17.6669 11.3825 17.663 11.3517 17.6533 11.3225C17.6436 11.2933 17.6283 11.2664 17.6081 11.2431C17.588 11.2199 17.5635 11.2008 17.536 11.1871C17.4163 11.1269 14.5739 9.71573 12.1215 9.3596C10.5991 9.1378 9.06504 9.00616 7.52719 8.96534C7.48848 8.96494 7.45028 8.97414 7.416 8.99212C7.38173 9.0101 7.35244 9.03629 7.33077 9.06837C7.3091 9.10044 7.29573 9.13739 7.29184 9.1759C7.28795 9.21441 7.29367 9.25328 7.30849 9.28904C7.5108 9.77592 7.81109 10.6671 7.75792 10.9861V10.9861ZM6.71093 11.0349C6.75039 11.4803 6.54774 12.01 6.43271 12.2695H6.86743C6.9955 11.9472 7.14966 11.4512 7.10986 10.9988C7.05355 10.3924 6.84916 9.80904 6.51464 9.30008C6.4836 9.2568 6.43664 9.22762 6.38408 9.21897C6.33153 9.21031 6.27769 9.22289 6.23441 9.25393C6.19113 9.28497 6.16196 9.33193 6.1533 9.38448C6.14465 9.43704 6.15723 9.49087 6.18827 9.53415C6.47945 9.98568 6.65863 10.5002 6.71093 11.0349Z" fill="white"/>
</svg>
