<svg width="16" height="16" viewBox="0 0 16 16" fill="none" xmlns="http://www.w3.org/2000/svg">
<path d="M7.992 0C3.576 0 0 3.584 0 8C0 12.416 3.576 16 7.992 16C12.416 16 16 12.416 16 8C16 3.584 12.416 0 7.992 0ZM13.536 4.8H11.176C10.92 3.8 10.552 2.84 10.072 1.952C11.544 2.456 12.768 3.48 13.536 4.8ZM8 1.632C8.664 2.592 9.184 3.656 9.528 4.8H6.472C6.816 3.656 7.336 2.592 8 1.632ZM1.808 9.6C1.68 9.088 1.6 8.552 1.6 8C1.6 7.448 1.68 6.912 1.808 6.4H4.512C4.448 6.928 4.4 7.456 4.4 8C4.4 8.544 4.448 9.072 4.512 9.6H1.808ZM2.464 11.2H4.824C5.08 12.2 5.448 13.16 5.928 14.048C4.456 13.544 3.232 12.528 2.464 11.2V11.2ZM4.824 4.8H2.464C3.232 3.472 4.456 2.456 5.928 1.952C5.448 2.84 5.08 3.8 4.824 4.8V4.8ZM8 14.368C7.336 13.408 6.816 12.344 6.472 11.2H9.528C9.184 12.344 8.664 13.408 8 14.368ZM9.872 9.6H6.128C6.056 9.072 6 8.544 6 8C6 7.456 6.056 6.92 6.128 6.4H9.872C9.944 6.92 10 7.456 10 8C10 8.544 9.944 9.072 9.872 9.6ZM10.072 14.048C10.552 13.16 10.92 12.2 11.176 11.2H13.536C12.768 12.52 11.544 13.544 10.072 14.048V14.048ZM11.488 9.6C11.552 9.072 11.6 8.544 11.6 8C11.6 7.456 11.552 6.928 11.488 6.4H14.192C14.32 6.912 14.4 7.448 14.4 8C14.4 8.552 14.32 9.088 14.192 9.6H11.488Z" fill="#555555"/>
</svg>
