<svg width="24" height="16" viewBox="0 0 24 16" fill="none" xmlns="http://www.w3.org/2000/svg">
<mask id="path-1-inside-1_712_141" fill="white">
<path fill-rule="evenodd" clip-rule="evenodd" d="M11.9999 10.3159C10.9187 9.1944 9.67005 7.7417 8.30193 7.7417C6.92368 7.7417 5.8064 8.78155 5.8064 10.0643C5.8064 11.347 6.92368 12.3869 8.30193 12.3869C9.5432 12.3869 10.1501 11.6193 10.4977 11.2497"/>
</mask>
<path d="M12.7198 9.6218C12.2132 9.0963 11.5691 8.38573 10.8898 7.83272C10.2161 7.28426 9.33592 6.7417 8.30193 6.7417V8.7417C8.63606 8.7417 9.06424 8.92549 9.62718 9.38376C10.1845 9.83747 10.7054 10.414 11.2801 11.01L12.7198 9.6218ZM8.30193 6.7417C6.44026 6.7417 4.8064 8.16284 4.8064 10.0643H6.8064C6.8064 9.40027 7.40711 8.7417 8.30193 8.7417V6.7417ZM4.8064 10.0643C4.8064 11.9657 6.44026 13.3869 8.30193 13.3869V11.3869C7.40711 11.3869 6.8064 10.7283 6.8064 10.0643H4.8064ZM8.30193 13.3869C10.032 13.3869 10.9174 12.2632 11.2262 11.9348L9.76919 10.5647C9.38293 10.9754 9.05438 11.3869 8.30193 11.3869V13.3869Z" fill="#555555" mask="url(#path-1-inside-1_712_141)"/>
<mask id="path-3-inside-2_712_141" fill="white">
<path fill-rule="evenodd" clip-rule="evenodd" d="M10.5571 9.81268C11.6384 10.9342 12.887 12.3869 14.2551 12.3869C15.6334 12.3869 16.7507 11.347 16.7507 10.0643C16.7507 8.78155 15.6334 7.7417 14.2551 7.7417C13.0139 7.7417 12.4069 8.50926 12.0594 8.87881"/>
</mask>
<path d="M9.83724 10.5068C10.3439 11.0323 10.9879 11.7428 11.6672 12.2958C12.341 12.8443 13.2212 13.3869 14.2551 13.3869V11.3869C13.921 11.3869 13.4928 11.2031 12.9299 10.7448C12.3726 10.2911 11.8516 9.71457 11.277 9.11859L9.83724 10.5068ZM14.2551 13.3869C16.1168 13.3869 17.7507 11.9657 17.7507 10.0643H15.7507C15.7507 10.7283 15.15 11.3869 14.2551 11.3869V13.3869ZM17.7507 10.0643C17.7507 8.16284 16.1168 6.7417 14.2551 6.7417V8.7417C15.15 8.7417 15.7507 9.40027 15.7507 10.0643H17.7507ZM14.2551 6.7417C12.525 6.7417 11.6397 7.86539 11.3309 8.19374L12.7879 9.56388C13.1741 9.15313 13.5027 8.7417 14.2551 8.7417V6.7417Z" fill="#555555" mask="url(#path-3-inside-2_712_141)"/>
<path d="M19.9093 7.24752L19.8893 7.60202L20.2173 7.73778C21.692 8.34795 22.7258 9.79163 22.7258 11.472C22.7258 13.7027 20.9049 15.5139 18.6546 15.4999H18.6514H4.6111C2.3314 15.4629 0.5 13.6194 0.5 11.3545C0.5 9.83932 1.32115 8.51606 2.54949 7.78972L2.89157 7.58744L2.77172 7.20854C2.69306 6.95988 2.65077 6.69301 2.65077 6.41583C2.65077 4.94637 3.85099 3.74922 5.33847 3.74922C5.95677 3.74922 6.52579 3.9593 6.98231 4.31052L7.4709 4.6864L7.73787 4.13076C8.7688 1.98511 10.9667 0.5 13.5193 0.5C17.0625 0.5 19.9284 3.3526 19.9284 6.86407C19.9284 6.94916 19.9233 7.02659 19.9172 7.12039C19.9147 7.15937 19.9119 7.20117 19.9093 7.24752Z" stroke="#555555"/>
</svg>
