<svg width="16" height="16" viewBox="0 0 16 16" fill="none" xmlns="http://www.w3.org/2000/svg">
<path d="M7.69231 13.3334C6.98203 13.3334 6.36665 13.1786 5.84615 12.8694C5.32751 12.5612 4.91286 12.1247 4.64936 11.6095C4.36921 11.0734 4.16414 10.5064 4.0391 9.9224C3.90644 9.28905 3.84181 8.64511 3.84615 8C3.84615 7.48917 3.87949 7.00086 3.94679 6.53391C4.01346 6.06757 4.13718 5.59348 4.31731 5.1123C4.49743 4.63111 4.72949 4.21393 5.01218 3.86015C5.30649 3.49771 5.68702 3.2027 6.12436 2.99793C6.58332 2.77689 7.10511 2.66666 7.69231 2.66666C8.40258 2.66666 9.01797 2.82134 9.53846 3.13066C10.0571 3.43877 10.4718 3.87528 10.7353 4.39052C11.0135 4.92089 11.2167 5.48326 11.3455 6.0776C11.4737 6.67138 11.5385 7.31262 11.5385 8C11.5385 8.51083 11.5051 8.99914 11.4378 9.46609C11.3661 9.95089 11.2393 10.4274 11.0596 10.8877C10.8737 11.3689 10.643 11.7861 10.3647 12.1399C10.0865 12.4936 9.71858 12.781 9.26025 13.0021C8.80191 13.2231 8.27951 13.3334 7.69231 13.3334ZM9.05003 9.412C9.41785 9.04271 9.62246 8.53169 9.61538 8C9.61538 7.45065 9.43138 6.98 9.06412 6.588C8.69618 6.196 8.23908 6 7.69231 6C7.14554 6 6.68849 6.196 6.32049 6.588C5.9602 6.96142 5.76122 7.47108 5.76923 8C5.76923 8.54935 5.95321 9.02 6.32049 9.412C6.68849 9.804 7.14554 10 7.69231 10C8.23908 10 8.69169 9.804 9.05003 9.412ZM7.69231 16C11.9404 16 15.3846 12.418 15.3846 8C15.3846 3.582 11.9404 0 7.69231 0C3.44423 0 0 3.582 0 8C0 12.418 3.44423 16 7.69231 16Z" fill="#555555"/>
</svg>
