<svg width="86" height="24" viewBox="0 0 86 24" fill="none" xmlns="http://www.w3.org/2000/svg">
<path d="M0.270676 9.10034H23.4663V14.8992H0.270676V9.10034Z" fill="#FF4040" fill-opacity="0.33" stroke="#FF4040"/>
<path d="M8.96902 0.4021H14.7679V23.5977H8.96902V0.4021Z" fill="#FF4040" fill-opacity="0.33" stroke="#FF4040"/>
<path d="M36.9511 22.5434L48.5489 1.45654H25.3533L36.9511 22.5434Z" fill="#FF8000" fill-opacity="0.33" stroke="#FF8000"/>
<path d="M48.5489 22.5434L60.1467 1.45654H36.9511L48.5489 22.5434Z" fill="#FF8000" fill-opacity="0.33" stroke="#FF8000"/>
<path d="M85.2288 11.9999C85.2288 18.405 80.0361 23.5977 73.631 23.5977C67.2253 23.5977 62.0332 18.405 62.0332 11.9999C62.0327 5.59422 67.2253 0.4021 73.6305 0.4021C80.0361 0.401572 85.2288 5.59422 85.2288 11.9999Z" fill="#00BFA8" fill-opacity="0.33" stroke="#00BFA8"/>
<path d="M76.5305 11.9998C76.5305 13.6008 75.232 14.8992 73.631 14.8992C72.0295 14.8992 70.7316 13.6008 70.7316 11.9998C70.731 10.3982 72.0295 9.10034 73.6305 9.10034C75.232 9.09981 76.5305 10.3982 76.5305 11.9998Z" fill="#00BFA8" fill-opacity="0.33" stroke="#00BFA8"/>
</svg>
