<svg width="214" height="120" viewBox="0 0 214 120" fill="none" xmlns="http://www.w3.org/2000/svg">
<g clip-path="url(#clip0_739_121)">
<g opacity="0.5">
<path d="M-19.1567 22.4663L3.24847 16.4629L4.74934 22.0642L-17.6559 28.0676L-19.1567 22.4663Z" fill="#C4C4C4" fill-opacity="0.33" stroke="#C4C4C4"/>
<path d="M12.9077 13.8745L35.3129 7.87105L36.8138 13.4724L14.4086 19.4758L12.9077 13.8745Z" fill="#C4C4C4" fill-opacity="0.33" stroke="#C4C4C4"/>
<path d="M19.0581 3.22119L24.6594 1.72033L30.6629 24.1255L25.0616 25.6264L19.0581 3.22119Z" fill="#C4C4C4" fill-opacity="0.33" stroke="#C4C4C4"/>
<path d="M44.9722 5.2832L67.3774 -0.720255L68.8782 4.88105L46.473 10.8845L44.9722 5.2832Z" fill="#C4C4C4" fill-opacity="0.33" stroke="#C4C4C4"/>
<path d="M51.1226 -5.37012L56.7239 -6.87098L62.7273 15.5342L57.126 17.0351L51.1226 -5.37012Z" fill="#C4C4C4" fill-opacity="0.33" stroke="#C4C4C4"/>
<path d="M77.0366 -3.30859L99.4418 -9.31205L100.943 -3.71075L78.5375 2.29271L77.0366 -3.30859Z" fill="#C4C4C4" fill-opacity="0.33" stroke="#C4C4C4"/>
<path d="M83.187 -13.9619L88.7883 -15.4628L94.7918 6.94243L89.1905 8.4433L83.187 -13.9619Z" fill="#C4C4C4" fill-opacity="0.33" stroke="#C4C4C4"/>
<path d="M115.251 -22.5537L120.853 -24.0546L126.856 -1.64936L121.255 -0.148499L115.251 -22.5537Z" fill="#C4C4C4" fill-opacity="0.33" stroke="#C4C4C4"/>
<path d="M-10.5654 54.5308L11.8398 48.5273L13.3406 54.1286L-9.06457 60.1321L-10.5654 54.5308Z" fill="#C4C4C4" fill-opacity="0.33" stroke="#C4C4C4"/>
<path d="M-4.41504 43.8774L1.18626 42.3766L7.18972 64.7818L1.58842 66.2827L-4.41504 43.8774Z" fill="#C4C4C4" fill-opacity="0.33" stroke="#C4C4C4"/>
<path d="M21.499 45.939L43.9042 39.9355L45.4051 45.5368L22.9999 51.5403L21.499 45.939Z" fill="#C4C4C4" fill-opacity="0.33" stroke="#C4C4C4"/>
<path d="M27.6494 35.2856L33.2507 33.7848L39.2542 56.19L33.6529 57.6909L27.6494 35.2856Z" fill="#C4C4C4" fill-opacity="0.33" stroke="#C4C4C4"/>
<path d="M53.5635 37.3477L75.9687 31.3442L77.4696 36.9455L55.0643 42.949L53.5635 37.3477Z" fill="#C4C4C4" fill-opacity="0.33" stroke="#C4C4C4"/>
<path d="M59.7139 26.6943L65.3152 25.1935L71.3186 47.5987L65.7173 49.0995L59.7139 26.6943Z" fill="#C4C4C4" fill-opacity="0.33" stroke="#C4C4C4"/>
<path d="M85.6279 28.7559L108.033 22.7524L109.534 28.3537L87.1288 34.3572L85.6279 28.7559Z" fill="#C4C4C4" fill-opacity="0.33" stroke="#C4C4C4"/>
<path d="M91.7783 18.1025L97.3796 16.6017L103.383 39.0069L97.7818 40.5078L91.7783 18.1025Z" fill="#C4C4C4" fill-opacity="0.33" stroke="#C4C4C4"/>
<path d="M117.692 20.1641L140.098 14.1606L141.598 19.7619L119.193 25.7654L117.692 20.1641Z" fill="#C4C4C4" fill-opacity="0.33" stroke="#C4C4C4"/>
<path d="M123.843 9.51074L129.444 8.00988L135.448 30.4151L129.846 31.916L123.843 9.51074Z" fill="#C4C4C4" fill-opacity="0.33" stroke="#C4C4C4"/>
<path d="M149.757 11.5728L172.162 5.5693L173.663 11.1706L151.258 17.1741L149.757 11.5728Z" fill="#C4C4C4" fill-opacity="0.33" stroke="#C4C4C4"/>
<path d="M155.907 0.919434L161.509 -0.581431L167.512 21.8238L161.911 23.3246L155.907 0.919434Z" fill="#C4C4C4" fill-opacity="0.33" stroke="#C4C4C4"/>
<path d="M181.821 2.98096L204.227 -3.0225L205.727 2.5788L183.322 8.58226L181.821 2.98096Z" fill="#C4C4C4" fill-opacity="0.33" stroke="#C4C4C4"/>
<path d="M187.972 -7.67236L193.573 -9.17323L199.576 13.232L193.975 14.7328L187.972 -7.67236Z" fill="#C4C4C4" fill-opacity="0.33" stroke="#C4C4C4"/>
<path d="M-1.97363 86.5952L20.4316 80.5918L21.9324 86.1931L-0.472768 92.1965L-1.97363 86.5952Z" fill="#C4C4C4" fill-opacity="0.33" stroke="#C4C4C4"/>
<path d="M4.17676 75.9419L9.77806 74.441L15.7815 96.8462L10.1802 98.3471L4.17676 75.9419Z" fill="#C4C4C4" fill-opacity="0.33" stroke="#C4C4C4"/>
<path d="M30.0908 78.0034L52.496 72L53.9969 77.6013L31.5917 83.6047L30.0908 78.0034Z" fill="#C4C4C4" fill-opacity="0.33" stroke="#C4C4C4"/>
<path d="M36.2412 67.3501L41.8425 65.8492L47.846 88.2544L42.2447 89.7553L36.2412 67.3501Z" fill="#C4C4C4" fill-opacity="0.33" stroke="#C4C4C4"/>
<path d="M62.1553 69.4121L84.5605 63.4087L86.0613 69.01L63.6561 75.0134L62.1553 69.4121Z" fill="#C4C4C4" fill-opacity="0.33" stroke="#C4C4C4"/>
<path d="M68.3057 58.7588L73.907 57.2579L79.9104 79.6631L74.3091 81.164L68.3057 58.7588Z" fill="#C4C4C4" fill-opacity="0.33" stroke="#C4C4C4"/>
<path d="M94.2197 60.8203L116.625 54.8169L118.126 60.4182L95.7206 66.4216L94.2197 60.8203Z" fill="#C4C4C4" fill-opacity="0.33" stroke="#C4C4C4"/>
<path d="M100.37 50.167L105.971 48.6661L111.975 71.0713L106.374 72.5722L100.37 50.167Z" fill="#C4C4C4" fill-opacity="0.33" stroke="#C4C4C4"/>
<path d="M126.284 52.2285L148.689 46.2251L150.19 51.8264L127.785 57.8298L126.284 52.2285Z" fill="#C4C4C4" fill-opacity="0.33" stroke="#C4C4C4"/>
<path d="M132.435 41.5752L138.036 40.0743L144.039 62.4795L138.438 63.9804L132.435 41.5752Z" fill="#C4C4C4" fill-opacity="0.33" stroke="#C4C4C4"/>
<path d="M158.349 43.6372L180.754 37.6337L182.255 43.2351L159.849 49.2385L158.349 43.6372Z" fill="#C4C4C4" fill-opacity="0.33" stroke="#C4C4C4"/>
<path d="M164.499 32.9839L170.1 31.483L176.104 53.8882L170.502 55.3891L164.499 32.9839Z" fill="#C4C4C4" fill-opacity="0.33" stroke="#C4C4C4"/>
<path d="M190.413 35.0454L212.818 29.042L214.319 34.6433L191.914 40.6467L190.413 35.0454Z" fill="#C4C4C4" fill-opacity="0.33" stroke="#C4C4C4"/>
<path d="M196.563 24.3921L202.165 22.8912L208.168 45.2964L202.567 46.7973L196.563 24.3921Z" fill="#C4C4C4" fill-opacity="0.33" stroke="#C4C4C4"/>
<path d="M6.61816 118.66L29.0234 112.656L30.5242 118.258L8.11903 124.261L6.61816 118.66Z" fill="#C4C4C4" fill-opacity="0.33" stroke="#C4C4C4"/>
<path d="M12.7686 108.006L18.3699 106.505L24.3733 128.911L18.772 130.412L12.7686 108.006Z" fill="#C4C4C4" fill-opacity="0.33" stroke="#C4C4C4"/>
<path d="M38.6826 110.068L61.0878 104.064L62.5887 109.666L40.1835 115.669L38.6826 110.068Z" fill="#C4C4C4" fill-opacity="0.33" stroke="#C4C4C4"/>
<path d="M44.833 99.4146L50.4343 97.9137L56.4378 120.319L50.8365 121.82L44.833 99.4146Z" fill="#C4C4C4" fill-opacity="0.33" stroke="#C4C4C4"/>
<path d="M70.7471 101.477L93.1523 95.4731L94.6531 101.074L72.2479 107.078L70.7471 101.477Z" fill="#C4C4C4" fill-opacity="0.33" stroke="#C4C4C4"/>
<path d="M76.8975 90.8232L82.4988 89.3224L88.5022 111.728L82.9009 113.228L76.8975 90.8232Z" fill="#C4C4C4" fill-opacity="0.33" stroke="#C4C4C4"/>
<path d="M102.812 92.8848L125.217 86.8813L126.718 92.4826L104.312 98.4861L102.812 92.8848Z" fill="#C4C4C4" fill-opacity="0.33" stroke="#C4C4C4"/>
<path d="M108.962 82.2314L114.563 80.7306L120.567 103.136L114.965 104.637L108.962 82.2314Z" fill="#C4C4C4" fill-opacity="0.33" stroke="#C4C4C4"/>
<path d="M134.876 84.293L157.281 78.2895L158.782 83.8908L136.377 89.8943L134.876 84.293Z" fill="#C4C4C4" fill-opacity="0.33" stroke="#C4C4C4"/>
<path d="M141.026 73.6396L146.628 72.1388L152.631 94.544L147.03 96.0449L141.026 73.6396Z" fill="#C4C4C4" fill-opacity="0.33" stroke="#C4C4C4"/>
<path d="M166.94 75.7017L189.346 69.6982L190.847 75.2995L168.441 81.303L166.94 75.7017Z" fill="#C4C4C4" fill-opacity="0.33" stroke="#C4C4C4"/>
<path d="M173.091 65.0483L178.692 63.5475L184.696 85.9527L179.094 87.4536L173.091 65.0483Z" fill="#C4C4C4" fill-opacity="0.33" stroke="#C4C4C4"/>
<path d="M199.005 67.1099L221.41 61.1064L222.911 66.7077L200.506 72.7112L199.005 67.1099Z" fill="#C4C4C4" fill-opacity="0.33" stroke="#C4C4C4"/>
<path d="M205.155 56.4565L210.757 54.9557L216.76 77.3609L211.159 78.8618L205.155 56.4565Z" fill="#C4C4C4" fill-opacity="0.33" stroke="#C4C4C4"/>
<path d="M111.403 124.949L133.808 118.946L135.309 124.547L112.904 130.551L111.403 124.949Z" fill="#C4C4C4" fill-opacity="0.33" stroke="#C4C4C4"/>
<path d="M117.553 114.296L123.155 112.795L129.158 135.2L123.557 136.701L117.553 114.296Z" fill="#C4C4C4" fill-opacity="0.33" stroke="#C4C4C4"/>
<path d="M143.467 116.357L165.872 110.354L167.373 115.955L144.968 121.959L143.467 116.357Z" fill="#C4C4C4" fill-opacity="0.33" stroke="#C4C4C4"/>
<path d="M149.618 105.704L155.219 104.203L161.222 126.608L155.621 128.109L149.618 105.704Z" fill="#C4C4C4" fill-opacity="0.33" stroke="#C4C4C4"/>
<path d="M175.532 107.766L197.937 101.763L199.438 107.364L177.033 113.367L175.532 107.766Z" fill="#C4C4C4" fill-opacity="0.33" stroke="#C4C4C4"/>
<path d="M181.682 97.1128L187.283 95.6119L193.287 118.017L187.686 119.518L181.682 97.1128Z" fill="#C4C4C4" fill-opacity="0.33" stroke="#C4C4C4"/>
<path d="M207.596 99.1743L230.001 93.1709L231.502 98.7722L209.097 104.776L207.596 99.1743Z" fill="#C4C4C4" fill-opacity="0.33" stroke="#C4C4C4"/>
<path d="M213.747 88.521L219.348 87.0201L225.351 109.425L219.75 110.926L213.747 88.521Z" fill="#C4C4C4" fill-opacity="0.33" stroke="#C4C4C4"/>
</g>
</g>
<defs>
<clipPath id="clip0_739_121">
<path d="M0 0H213.176V120H0V0Z" fill="white"/>
</clipPath>
</defs>
</svg>
